<svg width="168" height="168" viewBox="0 0 168 168" fill="none" xmlns="http://www.w3.org/2000/svg">
<circle cx="84" cy="84" r="83.5" fill="#A7F4C6" stroke="#3A3333"/>
<path d="M40.9485 48.1911L26.9774 39.358L28.8078 37.4556L35.932 42.204L40.2682 45.1857L40.3293 45.1223C39.3209 43.6636 38.3279 42.189 37.3507 40.7297L32.7281 33.3814L34.284 31.7644L41.8201 36.0848C43.3001 36.9898 44.7965 37.9412 46.3241 38.8921L46.4003 38.8128C45.3151 37.4022 44.2611 35.9911 43.2234 34.6263L38.2195 27.6743L39.9127 25.9146L49.3687 39.4402L47.1874 41.7072L39.1933 37.0378C38.0756 36.3591 37.0359 35.6946 35.9956 34.9989L35.9193 35.0781C36.6545 36.0909 37.3434 37.1201 38.0798 38.1951L43.084 45.9717L40.9485 48.1911Z" fill="black"/>
<path d="M57.7222 34.9153C54.8832 36.554 51.4501 35.8431 49.4594 32.3943C47.4907 28.9837 48.5945 25.527 51.0524 24.1083C53.8343 22.5025 56.4752 23.6453 58.1909 26.6177C58.4329 27.0369 58.6477 27.4971 58.7336 27.7778L51.9314 31.7041C53.2577 33.6058 55.2081 34.0803 57.0182 33.0355C57.9518 32.4965 58.5871 31.7488 59.0633 30.8135L60.6283 31.7645C60.0305 32.9732 59.0941 34.1234 57.7222 34.9153ZM51.0435 30.2099L56.0737 27.3064C55.0288 25.4963 53.6046 24.9212 52.0804 25.8011C50.7657 26.56 50.1863 28.2407 51.0435 30.2099Z" fill="black"/>
<path d="M74.6211 29.1429C72.5569 29.4704 70.8874 28.3542 70.553 26.2466C70.1462 23.6826 72.1087 22.0125 76.9983 20.6798C76.7559 19.2927 76.0631 18.1552 74.3032 18.4344C73.0429 18.6344 71.9592 19.3855 71.0414 20.1993L69.8382 18.6528C70.9526 17.6741 72.5016 16.6264 74.4137 16.323C77.3904 15.8507 79.0592 17.5239 79.5625 20.6962L80.7036 27.8883L78.6612 28.2123L78.2267 26.8779L78.1615 26.8883C77.2233 27.995 76.0551 28.9154 74.6211 29.1429ZM75.0678 27.045C76.1108 26.8795 76.8789 26.2453 77.7153 25.1993L77.25 22.266C73.7772 23.2625 72.7235 24.3429 72.9372 25.6901C73.1234 26.8634 74.0032 27.2139 75.0678 27.045Z" fill="black"/>
<path d="M84.8184 28.044L85.5249 15.9646L87.5894 16.0854L87.6598 18.2712L87.7257 18.2751C88.6735 16.7658 90.0012 15.9179 91.297 15.9937C91.89 16.0284 92.2802 16.1394 92.6433 16.3369L92.0536 18.5062C91.644 18.35 91.3404 18.2661 90.8572 18.2378C89.8689 18.18 88.6431 18.7915 87.7627 20.6573L87.3221 28.1904L84.8184 28.044Z" fill="black"/>
<path d="M100.204 30.8583C97.0482 29.9707 95.1594 27.017 96.2376 23.1837C97.3039 19.3928 100.549 17.7688 103.281 18.5373C106.373 19.407 107.399 22.0953 106.47 25.3991C106.339 25.865 106.16 26.3402 106.019 26.5977L98.458 24.471C98.0231 26.7484 99.0456 28.4757 101.058 29.0416C102.095 29.3335 103.074 29.2661 104.076 28.9537L104.488 30.738C103.206 31.1542 101.729 31.2872 100.204 30.8583ZM98.9074 22.792L104.498 24.3646C105.064 22.3527 104.481 20.9318 102.787 20.4552C101.326 20.0442 99.7182 20.8032 98.9074 22.792Z" fill="black"/>
<path d="M114.143 37.0118L123.986 24.1552L127.969 27.2045C130.606 29.224 131.868 31.5202 130.09 33.8435C129.154 35.0662 127.576 35.715 126.129 35.2166L126.062 35.304C127.289 36.7418 127.592 38.5533 126.255 40.3001C124.302 42.8505 121.287 42.4817 118.44 40.3018L114.143 37.0118ZM121.906 31.0693L123.636 32.3933C125.592 33.8912 126.975 33.7861 127.898 32.5808C128.928 31.2358 128.407 30.0338 126.59 28.6429L124.809 27.2787L121.906 31.0693ZM117.386 36.9736L119.43 38.5383C121.439 40.0763 123.14 40.2428 124.344 38.6707C125.454 37.2208 124.817 35.736 122.773 34.1713L120.73 32.6065L117.386 36.9736Z" fill="black"/>
<path d="M125.012 46.514L134.356 38.8256L135.67 40.4225L134.114 41.9593L134.156 42.0103C135.907 41.6803 137.431 42.0785 138.256 43.0808C138.634 43.5395 138.817 43.9012 138.919 44.3018L136.927 45.3429C136.763 44.9363 136.618 44.6565 136.311 44.2828C135.682 43.5183 134.4 43.0343 132.433 43.6559L126.606 48.4506L125.012 46.514Z" fill="black"/>
<path d="M133.411 59.7211C131.919 56.8027 132.803 53.41 136.348 51.5968C139.854 49.8036 143.25 51.0813 144.543 53.608C146.005 56.4677 144.73 59.0473 141.674 60.6101C141.243 60.8305 140.773 61.0217 140.488 61.0932L136.912 54.1006C134.945 55.3287 134.373 57.2526 135.324 59.1133C135.815 60.0731 136.53 60.7455 137.44 61.2685L136.41 62.7833C135.234 62.1249 134.132 61.1314 133.411 59.7211ZM138.449 53.2896L141.094 58.4606C142.955 57.5089 143.601 56.1157 142.8 54.5488C142.109 53.1973 140.459 52.5334 138.449 53.2896Z" fill="black"/>
<path d="M137.029 69.8291C136.537 67.7977 137.516 66.0443 139.591 65.5425C142.114 64.932 143.936 66.7548 145.655 71.5222C147.018 71.1697 148.097 70.3882 147.678 68.6561C147.377 67.4159 146.542 66.3957 145.658 65.5459L147.103 64.2229C148.168 65.2555 149.336 66.7158 149.791 68.5975C150.5 71.527 148.965 73.3242 145.843 74.0795L138.766 75.7919L138.279 73.7819L139.575 73.2421L139.559 73.178C138.381 72.3313 137.37 71.2404 137.029 69.8291ZM139.156 70.1067C139.404 71.1331 140.098 71.8481 141.207 72.5982L144.094 71.8998C142.823 68.5178 141.662 67.5539 140.336 67.8746C139.181 68.154 138.902 69.059 139.156 70.1067Z" fill="black"/>
<path d="M138.696 83.8806C138.71 80.8446 141.029 78.8971 145.033 78.9154C148.971 78.9333 151.402 81.4304 151.389 84.1363C151.383 85.5223 150.851 86.3999 150.01 87.3861L152.013 87.2852L156.501 87.3056L156.489 89.8356L138.956 89.7558L138.965 87.6878L140.33 87.474L140.33 87.408C139.41 86.5018 138.69 85.2446 138.696 83.8806ZM140.784 84.4841C140.779 85.4961 141.237 86.3562 142.245 87.2408L148.163 87.2677C148.981 86.3694 149.271 85.5127 149.275 84.6107C149.283 82.9167 147.683 81.5454 145.065 81.5335C142.315 81.521 140.792 82.5921 140.784 84.4841Z" fill="black"/>
<path d="M138 93.7029L149.841 96.1926L149.325 98.647L137.484 96.1572L138 93.7029ZM151.801 97.8861C151.991 96.9818 152.734 96.4412 153.595 96.6222C154.478 96.8078 154.919 97.5975 154.729 98.5017C154.539 99.4059 153.813 99.9726 152.93 99.787C152.069 99.606 151.611 98.7903 151.801 97.8861Z" fill="black"/>
<path d="M133.997 105.638C135.002 103.102 136.925 102.847 139.298 103.787L144.983 106.04L145.632 104.403L147.391 105.1L146.825 106.887L149.828 108.385L149.042 110.369L145.933 109.137L144.774 112.062L142.893 111.317L144.052 108.392L138.345 106.131C136.995 105.596 136.113 105.791 135.652 106.957C135.498 107.345 135.426 107.885 135.439 108.269L133.531 108.009C133.577 107.294 133.673 106.456 133.997 105.638Z" fill="black"/>
<path d="M125.357 119.612L135.891 128.921L139.038 125.361L140.637 126.774L132.638 135.824L131.039 134.411L134.201 130.834L123.667 121.524L125.357 119.612Z" fill="black"/>
<path d="M113.693 129.375C116.389 127.51 119.869 127.939 122.134 131.214C124.374 134.453 123.556 137.988 121.222 139.602C118.58 141.429 115.855 140.506 113.902 137.683C113.627 137.285 113.375 136.844 113.267 136.571L119.726 132.103C118.25 130.316 116.267 130.002 114.548 131.191C113.661 131.804 113.089 132.601 112.691 133.572L111.054 132.752C111.551 131.498 112.39 130.276 113.693 129.375ZM120.733 133.52L115.956 136.824C117.145 138.543 118.612 139 120.059 137.999C121.308 137.135 121.748 135.413 120.733 133.52Z" fill="black"/>
<path d="M104.148 134.285C106.097 133.53 107.964 134.269 108.735 136.259C109.673 138.68 108.107 140.726 103.608 143.059C104.137 144.364 105.054 145.33 106.716 144.686C107.906 144.225 108.807 143.263 109.532 142.274L111.034 143.532C110.151 144.723 108.858 146.074 107.053 146.774C104.242 147.863 102.258 146.579 101.098 143.584L98.4665 136.794L100.395 136.047L101.101 137.259L101.162 137.236C101.846 135.956 102.794 134.81 104.148 134.285ZM104.153 136.43C103.169 136.812 102.552 137.594 101.954 138.793L103.028 141.562C106.212 139.856 107.015 138.578 106.522 137.306C106.092 136.198 105.159 136.041 104.153 136.43Z" fill="black"/>
<path d="M94.9917 137.752L95.983 149.811L93.922 149.981L93.5858 148.309L93.5201 148.314C92.5797 149.495 91.4476 150.493 89.9566 150.616C88.1587 150.764 87.0816 150.013 86.4419 148.675C85.3624 150.044 84.212 151.088 82.6991 151.212C80.1776 151.42 78.853 149.807 78.6007 146.737L77.9771 139.151L80.4986 138.943L81.097 146.223C81.2682 148.306 81.9945 149.085 83.3539 148.973C84.1871 148.905 85.0191 148.284 85.9375 147.105L85.2346 138.554L87.7561 138.347L88.3545 145.626C88.5257 147.709 89.2301 148.49 90.6114 148.377C91.4227 148.31 92.2766 147.688 93.1951 146.509L92.4922 137.957L94.9917 137.752Z" fill="black"/>
<path d="M71.6505 136.855C74.7732 137.506 76.201 140.681 75.0508 146.194C73.905 151.686 71.345 153.938 68.2223 153.287C65.121 152.64 63.6583 149.526 64.7995 144.055C65.9497 138.542 68.5492 136.208 71.6505 136.855ZM71.2416 138.815C69.6264 138.478 68.1255 139.962 67.1685 144.55C66.2205 149.094 67.0159 150.99 68.6311 151.327C70.2464 151.664 71.7337 150.244 72.6818 145.7C73.6388 141.113 72.8568 139.151 71.2416 138.815Z" fill="black"/>
<path d="M59.8351 132.713C62.1428 133.802 63.2029 135.422 63.6612 136.976L61.8521 137.922C61.4099 136.643 60.6632 135.39 59.1512 134.677C57.4999 133.897 55.9339 134.277 55.2201 135.789C54.45 137.42 54.9868 138.963 58.2893 140.522L57.491 142.213C54.6062 140.851 53.1348 141.495 52.4398 142.967C51.8293 144.26 52.2997 145.48 53.6829 146.157C54.8263 146.672 56.0442 146.566 57.2649 146.145L57.7823 148.141C56.1401 148.631 54.4397 148.728 52.7487 147.93C50.1226 146.69 48.9111 144.464 50.0569 142.037C50.8552 140.346 52.3841 139.632 54.2083 139.788L54.2552 139.688C52.7614 138.472 52.0295 136.57 52.9593 134.6C54.2084 131.954 57.1493 131.445 59.8351 132.713Z" fill="black"/>
<path d="M41.8145 126.69L35.9116 133.226L34.1432 135.128L32.3191 133.343L34.1976 131.549L40.6037 125.506L41.8145 126.69ZM45.0328 122.206C45.7089 122.868 45.7201 123.894 44.9969 124.633C44.2738 125.372 43.2164 125.415 42.5402 124.753C41.8483 124.076 41.8522 123.003 42.5754 122.264C43.2985 121.525 44.3409 121.529 45.0328 122.206Z" fill="black"/>
<path d="M35.0778 118.967L28.1542 124.41L26.0896 125.985L24.5938 123.918L26.7487 122.467L34.0849 117.595L35.0778 118.967ZM39.0084 115.092C39.5629 115.858 39.4002 116.872 38.5624 117.478C37.7246 118.084 36.6752 117.947 36.1208 117.181C35.5534 116.397 35.7388 115.339 36.5766 114.733C37.4144 114.127 38.441 114.308 39.0084 115.092Z" fill="black"/>
</svg>
