<svg width="144" height="34" viewBox="0 0 144 34" fill="none" xmlns="http://www.w3.org/2000/svg">
<path d="M52.5717 28.2007C50.8809 28.2007 49.1902 27.9049 47.4994 27.3131C46.2736 27.778 44.8575 28.0105 43.2513 28.0105C42.892 28.0105 42.5644 27.9894 42.2685 27.9471C42.2685 26.679 42.8497 23.5511 44.0121 18.5633C45.1746 13.5755 45.7558 10.754 45.7558 10.0989C45.7558 9.44368 45.629 8.86247 45.3753 8.35524C45.1429 7.84801 44.8998 7.46758 44.6462 7.21397L44.2975 6.86524L44.4243 6.07269C44.9526 5.96702 46.1679 5.81908 48.07 5.62886C49.9933 5.41752 51.6206 5.31184 52.9521 5.31184C58.109 5.31184 60.6874 6.97092 60.6874 10.2891C60.6874 11.8319 60.1591 13.0894 59.1023 14.0616C58.0667 15.0338 56.7775 15.689 55.2347 16.0271C56.693 16.1962 57.9188 16.7246 58.9121 17.6122C59.9055 18.4788 60.4021 19.7151 60.4021 21.3214C60.4021 23.3081 59.6624 24.9566 58.183 26.2669C56.7035 27.5561 54.8331 28.2007 52.5717 28.2007ZM51.4938 17.105C51.1134 17.105 50.6907 17.1367 50.2258 17.2001C49.4015 20.8142 48.8731 23.4349 48.6407 25.0622C49.1056 25.337 49.7397 25.4744 50.5428 25.4744C51.7686 25.4744 52.6879 24.9671 53.3009 23.9527C53.9138 22.9382 54.2202 21.7969 54.2202 20.5288C54.2202 19.2396 53.9877 18.352 53.5228 17.8659C53.0789 17.3586 52.4026 17.105 51.4938 17.105ZM51.0817 14.7908C52.0116 14.7908 52.7408 14.442 53.2692 13.7446C54.2202 12.5399 54.6957 11.2084 54.6957 9.75013C54.6957 8.2707 54.1885 7.53099 53.174 7.53099L52.1279 7.6578C52.1067 8.48205 51.6629 10.8597 50.7964 14.7908H51.0817ZM62.5217 28.0105H62.2681C62.2047 27.7146 62.173 27.2602 62.173 26.6473C62.173 26.0133 62.4266 24.3965 62.9338 21.7969C63.4622 19.1762 63.7264 17.6968 63.7264 17.3586C63.7264 16.9993 63.6313 16.64 63.4411 16.2808C63.2508 15.9003 63.0606 15.615 62.8704 15.4248L62.5851 15.1395L62.6485 14.664C63.9166 14.2624 66.0195 14.0616 68.9572 14.0616C69.232 14.59 69.401 15.2135 69.4645 15.932C70.7537 14.4949 71.8949 13.7763 72.8883 13.7763C74.1775 13.7763 74.8855 14.8647 75.0123 17.0416C74.97 17.0839 74.9172 17.1578 74.8538 17.2635C74.7904 17.3481 74.6425 17.5066 74.41 17.7391C74.1775 17.9715 73.9344 18.1829 73.6808 18.3731C72.9622 18.8592 72.2014 19.1445 71.3983 19.2291C71.3771 19.2291 71.2292 18.9966 70.9545 18.5316C70.7008 18.0666 70.4789 17.8342 70.2887 17.8342C70.1196 17.8342 69.792 18.0244 69.3059 18.4048C69.2425 18.7852 69.1157 19.4298 68.9255 20.3386C68.7564 21.2474 68.6191 21.9977 68.5134 22.5895C68.1964 24.1534 68.0379 25.4638 68.0379 26.5205L68.0696 27.4716C67.1396 27.8309 65.2903 28.0105 62.5217 28.0105ZM74.0169 22.0822C74.0169 19.4615 74.8095 17.422 76.3946 15.9637C78.0008 14.5054 79.9769 13.7763 82.3229 13.7763C83.9502 13.7763 85.25 14.1356 86.2222 14.8542C87.2155 15.5516 87.7122 16.4921 87.7122 17.6756C87.7122 18.5422 87.448 19.3136 86.9197 19.9899C86.3913 20.6662 85.7467 21.184 84.9858 21.5433C83.3796 22.2619 81.9847 22.6951 80.8012 22.8431L80.0086 22.9382C80.2411 24.3331 80.9385 25.0305 82.1009 25.0305C82.6082 25.0305 83.1682 24.9249 83.7812 24.7135C84.3941 24.481 84.8802 24.2485 85.2395 24.0161L85.7784 23.699L86.7929 25.0622C86.7929 25.0622 86.6766 25.1785 86.4441 25.411C86.3173 25.5378 86.0109 25.7914 85.5248 26.1718C85.0598 26.5311 84.5631 26.8481 84.0348 27.1229C83.5275 27.3976 82.8724 27.6407 82.0692 27.852C81.2661 28.0845 80.463 28.2007 79.6599 28.2007C77.8634 28.2007 76.4685 27.6829 75.4752 26.6473C74.503 25.5906 74.0169 24.0689 74.0169 22.0822ZM79.8818 20.8459C80.4947 20.7613 81.1076 20.2647 81.7205 19.3559C82.3334 18.4259 82.6399 17.6545 82.6399 17.0416C82.6399 16.4076 82.4602 16.0905 82.1009 16.0905C81.5726 16.0905 81.0865 16.5027 80.6427 17.3269C80.1988 18.1512 79.9452 19.3242 79.8818 20.8459ZM103.612 14.981C103.168 16.3547 102.788 17.9927 102.471 19.8948C102.154 21.7758 101.995 23.0967 101.995 23.8576C101.995 24.5973 102.112 24.9671 102.344 24.9671L103.929 24.5233L104.5 26.1084C103.824 26.6368 102.957 27.1229 101.9 27.5667C100.865 27.9894 99.9454 28.2007 99.1423 28.2007C97.7685 28.2007 96.902 27.609 96.5427 26.4254C94.8731 27.609 93.3937 28.2007 92.1044 28.2007C90.8364 28.2007 89.8536 27.7358 89.1561 26.8058C88.4587 25.8759 88.11 24.5444 88.11 22.8114C88.11 20.4232 88.7229 18.3203 89.9487 16.5027C91.1745 14.6851 92.7913 13.7763 94.7991 13.7763C95.8981 13.7763 97.0183 14.0827 98.1595 14.6957C98.3286 14.3152 98.466 14.0405 98.5717 13.8714C100.093 13.8714 101.774 14.2413 103.612 14.981ZM94.07 22.431C94.07 23.4877 94.1439 24.1534 94.2919 24.4282C94.4398 24.7029 94.7146 24.8403 95.1161 24.8403C95.5177 24.8403 95.9087 24.6818 96.2891 24.3648C96.3736 21.9132 96.7752 19.3453 97.4938 16.6612C97.1768 16.471 96.8069 16.3759 96.3842 16.3759C95.9827 16.3759 95.6128 16.6083 95.2746 17.0733C94.9576 17.5383 94.7146 18.1195 94.5455 18.8169C94.2285 20.1484 94.07 21.3531 94.07 22.431ZM115.984 28.2007C114.674 28.2007 113.828 27.6935 113.448 26.679C111.842 27.6935 110.404 28.2007 109.136 28.2007C107.889 28.2007 106.875 27.778 106.093 26.9327C105.332 26.0661 104.952 24.6712 104.952 22.748C104.952 20.233 105.586 18.1089 106.854 16.3759C108.143 14.6428 109.802 13.7763 111.831 13.7763C112.824 13.7763 113.818 14.0088 114.811 14.4737C115.593 10.902 115.984 8.33411 115.984 6.77014C115.984 6.30517 115.952 5.84021 115.889 5.37525C117.854 4.82574 119.746 4.55099 121.564 4.55099C121.733 4.82574 121.817 5.48092 121.817 6.51652C121.817 7.53099 121.331 10.2785 120.359 14.7591C119.408 19.2396 118.932 22.2407 118.932 23.7624C118.932 24.5656 119.07 24.9671 119.344 24.9671L120.708 24.5233L121.278 26.1401C119.418 27.5139 117.654 28.2007 115.984 28.2007ZM111.831 24.9988C112.211 24.9988 112.634 24.872 113.099 24.6184V24.5867C113.184 22.8748 113.596 20.1801 114.336 16.5027C113.913 16.3759 113.606 16.3125 113.416 16.3125C112.972 16.3125 112.581 16.5344 112.243 16.9782C111.905 17.422 111.641 17.9927 111.451 18.6901C111.091 20.1273 110.912 21.5433 110.912 22.9382C110.912 24.312 111.218 24.9988 111.831 24.9988ZM129.742 15.932C129.742 16.862 129.478 18.3097 128.95 20.2752C128.422 22.2196 128.157 23.4877 128.157 24.0795C128.157 24.6712 128.274 24.9671 128.506 24.9671C128.739 24.9671 129.161 24.8615 129.774 24.6501L130.059 24.5233L130.63 26.1084C129.912 26.6579 129.013 27.144 127.935 27.5667C126.879 27.9894 125.917 28.2007 125.051 28.2007C124.184 28.2007 123.497 27.9577 122.99 27.4716C122.504 26.9855 122.261 26.288 122.261 25.3793C122.261 24.4493 122.514 23.0439 123.022 21.1629C123.55 19.2608 123.814 18.0561 123.814 17.5488C123.814 16.7669 123.539 16.0271 122.99 15.3297L122.736 14.981L122.831 14.442C123.93 14.1039 126.065 13.9348 129.235 13.9348C129.573 14.3152 129.742 14.981 129.742 15.932ZM127.365 11.462C126.414 11.462 125.663 11.2084 125.114 10.7012C124.586 10.194 124.321 9.54935 124.321 8.76737C124.321 7.96425 124.649 7.29851 125.304 6.77014C125.98 6.22064 126.794 5.94588 127.745 5.94588C128.696 5.94588 129.436 6.1678 129.964 6.61163C130.493 7.05546 130.757 7.67893 130.757 8.48205C130.757 9.28517 130.429 9.98261 129.774 10.5744C129.14 11.1662 128.337 11.462 127.365 11.462ZM142.512 16.5978L139.786 16.3759C138.94 20.159 138.475 22.357 138.391 22.9699C138.328 23.5828 138.296 24.09 138.296 24.4916C138.296 24.872 138.423 25.0622 138.676 25.0622C138.972 25.0622 139.532 24.872 140.356 24.4916L141.117 26.0133C140.441 26.6262 139.585 27.144 138.549 27.5667C137.514 27.9894 136.51 28.2007 135.538 28.2007C134.587 28.2007 133.826 27.9577 133.255 27.4716C132.685 26.9644 132.399 26.2563 132.399 25.3476C132.399 24.4388 132.663 22.9805 133.192 20.9727C133.72 18.9649 134.069 17.4749 134.238 16.5027C133.731 16.5449 132.98 16.6189 131.987 16.7246C131.903 16.2808 131.86 15.8686 131.86 15.4882C131.86 15.0866 131.913 14.6428 132.019 14.1567H134.555C134.576 13.882 134.587 12.9626 134.587 11.3986L134.523 10.0989C136.573 9.42254 138.528 9.08439 140.388 9.08439C140.536 9.42254 140.61 10.0143 140.61 10.8597C140.61 11.684 140.473 12.783 140.198 14.1567H143.051C143.051 15.0232 142.872 15.8369 142.512 16.5978Z" fill="#333333"/>
<circle cx="17.3901" cy="17.3823" r="16.3167" fill="black" stroke="black" stroke-width="0.6"/>
<circle cx="16.6167" cy="16.6167" r="16.3167" fill="#FFCB46" stroke="black" stroke-width="0.6"/>
<path d="M23.9589 19.7109C23.9589 22.6988 20.6717 25.121 16.6167 25.121C12.5617 25.121 9.27441 22.6988 9.27441 19.7109" stroke="black" stroke-linecap="round"/>
<ellipse cx="12.1728" cy="14.1014" rx="1.35252" ry="2.89826" fill="#060606"/>
<ellipse cx="21.0615" cy="14.1014" rx="1.35252" ry="2.89826" fill="#060606"/>
<path d="M24.7313 20.0974C24.5767 19.8397 24.3853 19.7109 23.9584 19.7109C23.5316 19.7109 23.3401 19.8397 23.1855 20.0974" stroke="black" stroke-linecap="round"/>
<path d="M10.0477 20.0974C9.89312 19.8397 9.70167 19.7109 9.27482 19.7109C8.84798 19.7109 8.65653 19.8397 8.50195 20.0974" stroke="black" stroke-linecap="round"/>
</svg>
