<svg width="146" height="40" viewBox="0 0 146 40" fill="none" xmlns="http://www.w3.org/2000/svg">
<path d="M53.712 30.384C52.0053 30.384 50.2987 30.0853 48.592 29.488C47.3547 29.9573 45.9253 30.192 44.304 30.192C43.9413 30.192 43.6107 30.1707 43.312 30.128C43.312 28.848 43.8987 25.6907 45.072 20.656C46.2453 15.6213 46.832 12.7733 46.832 12.112C46.832 11.4507 46.704 10.864 46.448 10.352C46.2133 9.84 45.968 9.456 45.712 9.2L45.36 8.848L45.488 8.048C46.0213 7.94133 47.248 7.792 49.168 7.6C51.1093 7.38667 52.752 7.28 54.096 7.28C59.3013 7.28 61.904 8.95467 61.904 12.304C61.904 13.8613 61.3707 15.1307 60.304 16.112C59.2587 17.0933 57.9573 17.7547 56.4 18.096C57.872 18.2667 59.1093 18.8 60.112 19.696C61.1147 20.5707 61.616 21.8187 61.616 23.44C61.616 25.4453 60.8693 27.1093 59.376 28.432C57.8827 29.7333 55.9947 30.384 53.712 30.384ZM52.624 19.184C52.24 19.184 51.8133 19.216 51.344 19.28C50.512 22.928 49.9787 25.5733 49.744 27.216C50.2133 27.4933 50.8533 27.632 51.664 27.632C52.9013 27.632 53.8293 27.12 54.448 26.096C55.0667 25.072 55.376 23.92 55.376 22.64C55.376 21.3387 55.1413 20.4427 54.672 19.952C54.224 19.44 53.5413 19.184 52.624 19.184ZM52.208 16.848C53.1467 16.848 53.8827 16.496 54.416 15.792C55.376 14.576 55.856 13.232 55.856 11.76C55.856 10.2667 55.344 9.52 54.32 9.52L53.264 9.648C53.2427 10.48 52.7947 12.88 51.92 16.848H52.208ZM63.7555 30.192H63.4995C63.4355 29.8933 63.4035 29.4347 63.4035 28.816C63.4035 28.176 63.6595 26.544 64.1715 23.92C64.7048 21.2747 64.9715 19.7813 64.9715 19.44C64.9715 19.0773 64.8755 18.7147 64.6835 18.352C64.4915 17.968 64.2995 17.68 64.1075 17.488L63.8195 17.2L63.8835 16.72C65.1635 16.3147 67.2862 16.112 70.2515 16.112C70.5288 16.6453 70.6995 17.2747 70.7635 18C72.0648 16.5493 73.2168 15.824 74.2195 15.824C75.5208 15.824 76.2355 16.9227 76.3635 19.12C76.3208 19.1627 76.2675 19.2373 76.2035 19.344C76.1395 19.4293 75.9902 19.5893 75.7555 19.824C75.5208 20.0587 75.2755 20.272 75.0195 20.464C74.2942 20.9547 73.5262 21.2427 72.7155 21.328C72.6942 21.328 72.5448 21.0933 72.2675 20.624C72.0115 20.1547 71.7875 19.92 71.5955 19.92C71.4248 19.92 71.0942 20.112 70.6035 20.496C70.5395 20.88 70.4115 21.5307 70.2195 22.448C70.0488 23.3653 69.9102 24.1227 69.8035 24.72C69.4835 26.2987 69.3235 27.6213 69.3235 28.688L69.3555 29.648C68.4168 30.0107 66.5502 30.192 63.7555 30.192ZM75.3588 24.208C75.3588 21.5627 76.1588 19.504 77.7588 18.032C79.3801 16.56 81.3748 15.824 83.7428 15.824C85.3854 15.824 86.6974 16.1867 87.6788 16.912C88.6814 17.616 89.1828 18.5653 89.1828 19.76C89.1828 20.6347 88.9161 21.4133 88.3828 22.096C87.8494 22.7787 87.1988 23.3013 86.4308 23.664C84.8094 24.3893 83.4014 24.8267 82.2068 24.976L81.4068 25.072C81.6414 26.48 82.3454 27.184 83.5188 27.184C84.0308 27.184 84.5961 27.0773 85.2148 26.864C85.8334 26.6293 86.3241 26.3947 86.6868 26.16L87.2308 25.84L88.2548 27.216C88.2548 27.216 88.1374 27.3333 87.9028 27.568C87.7748 27.696 87.4654 27.952 86.9748 28.336C86.5054 28.6987 86.0041 29.0187 85.4708 29.296C84.9588 29.5733 84.2974 29.8187 83.4868 30.032C82.6761 30.2667 81.8654 30.384 81.0548 30.384C79.2414 30.384 77.8334 29.8613 76.8307 28.816C75.8494 27.7493 75.3588 26.2133 75.3588 24.208ZM81.2788 22.96C81.8974 22.8747 82.5161 22.3733 83.1348 21.456C83.7534 20.5173 84.0628 19.7387 84.0628 19.12C84.0628 18.48 83.8814 18.16 83.5188 18.16C82.9854 18.16 82.4948 18.576 82.0468 19.408C81.5988 20.24 81.3428 21.424 81.2788 22.96ZM105.232 17.04C104.784 18.4267 104.4 20.08 104.08 22C103.76 23.8987 103.6 25.232 103.6 26C103.6 26.7467 103.718 27.12 103.952 27.12L105.552 26.672L106.128 28.272C105.446 28.8053 104.571 29.296 103.504 29.744C102.459 30.1707 101.531 30.384 100.72 30.384C99.3336 30.384 98.4589 29.7867 98.0963 28.592C96.4109 29.7867 94.9176 30.384 93.6163 30.384C92.3363 30.384 91.3443 29.9147 90.6403 28.976C89.9363 28.0373 89.5843 26.6933 89.5843 24.944C89.5843 22.5333 90.2029 20.4107 91.4403 18.576C92.6776 16.7413 94.3096 15.824 96.3363 15.824C97.4456 15.824 98.5763 16.1333 99.7283 16.752C99.8989 16.368 100.038 16.0907 100.144 15.92C101.68 15.92 103.376 16.2933 105.232 17.04ZM95.6003 24.56C95.6003 25.6267 95.6749 26.2987 95.8243 26.576C95.9736 26.8533 96.2509 26.992 96.6562 26.992C97.0616 26.992 97.4563 26.832 97.8403 26.512C97.9256 24.0373 98.3309 21.4453 99.0563 18.736C98.7363 18.544 98.3629 18.448 97.9363 18.448C97.5309 18.448 97.1576 18.6827 96.8163 19.152C96.4963 19.6213 96.2509 20.208 96.0803 20.912C95.7603 22.256 95.6003 23.472 95.6003 24.56ZM117.72 30.384C116.398 30.384 115.544 29.872 115.16 28.848C113.539 29.872 112.088 30.384 110.808 30.384C109.55 30.384 108.526 29.9573 107.736 29.104C106.968 28.2293 106.584 26.8213 106.584 24.88C106.584 22.3413 107.224 20.1973 108.504 18.448C109.806 16.6987 111.48 15.824 113.528 15.824C114.531 15.824 115.534 16.0587 116.536 16.528C117.326 12.9227 117.72 10.3307 117.72 8.752C117.72 8.28267 117.688 7.81333 117.624 7.344C119.608 6.78933 121.518 6.512 123.352 6.512C123.523 6.78933 123.608 7.45067 123.608 8.496C123.608 9.52 123.118 12.2933 122.136 16.816C121.176 21.3387 120.696 24.368 120.696 25.904C120.696 26.7147 120.835 27.12 121.112 27.12L122.488 26.672L123.064 28.304C121.187 29.6907 119.406 30.384 117.72 30.384ZM113.528 27.152C113.912 27.152 114.339 27.024 114.808 26.768V26.736C114.894 25.008 115.31 22.288 116.056 18.576C115.63 18.448 115.32 18.384 115.128 18.384C114.68 18.384 114.286 18.608 113.944 19.056C113.603 19.504 113.336 20.08 113.144 20.784C112.782 22.2347 112.6 23.664 112.6 25.072C112.6 26.4587 112.91 27.152 113.528 27.152ZM131.608 18C131.608 18.9387 131.341 20.4 130.808 22.384C130.275 24.3467 130.008 25.6267 130.008 26.224C130.008 26.8213 130.125 27.12 130.36 27.12C130.595 27.12 131.021 27.0133 131.64 26.8L131.928 26.672L132.504 28.272C131.779 28.8267 130.872 29.3173 129.784 29.744C128.717 30.1707 127.747 30.384 126.872 30.384C125.997 30.384 125.304 30.1387 124.792 29.648C124.301 29.1573 124.056 28.4533 124.056 27.536C124.056 26.5973 124.312 25.1787 124.824 23.28C125.357 21.36 125.624 20.144 125.624 19.632C125.624 18.8427 125.347 18.096 124.792 17.392L124.536 17.04L124.632 16.496C125.741 16.1547 127.896 15.984 131.096 15.984C131.437 16.368 131.608 17.04 131.608 18ZM129.208 13.488C128.248 13.488 127.491 13.232 126.936 12.72C126.403 12.208 126.136 11.5573 126.136 10.768C126.136 9.95733 126.467 9.28533 127.128 8.752C127.811 8.19733 128.632 7.92 129.592 7.92C130.552 7.92 131.299 8.144 131.832 8.592C132.365 9.04 132.632 9.66933 132.632 10.48C132.632 11.2907 132.301 11.9947 131.64 12.592C131 13.1893 130.189 13.488 129.208 13.488ZM144.498 18.672L141.746 18.448C140.892 22.2667 140.423 24.4853 140.338 25.104C140.274 25.7227 140.242 26.2347 140.242 26.64C140.242 27.024 140.37 27.216 140.626 27.216C140.924 27.216 141.49 27.024 142.322 26.64L143.09 28.176C142.407 28.7947 141.543 29.3173 140.498 29.744C139.452 30.1707 138.439 30.384 137.458 30.384C136.498 30.384 135.73 30.1387 135.154 29.648C134.578 29.136 134.29 28.4213 134.29 27.504C134.29 26.5867 134.556 25.1147 135.09 23.088C135.623 21.0613 135.975 19.5573 136.146 18.576C135.634 18.6187 134.876 18.6933 133.874 18.8C133.788 18.352 133.746 17.936 133.746 17.552C133.746 17.1467 133.799 16.6987 133.906 16.208H136.466C136.487 15.9307 136.498 15.0027 136.498 13.424L136.434 12.112C138.503 11.4293 140.476 11.088 142.354 11.088C142.503 11.4293 142.578 12.0267 142.578 12.88C142.578 13.712 142.439 14.8213 142.162 16.208H145.042C145.042 17.0827 144.86 17.904 144.498 18.672Z" fill="#333333"/>
<circle cx="17.4638" cy="20.4618" r="16.1884" fill="black" stroke="black"/>
<circle cx="16.6884" cy="19.6884" r="16.1884" fill="#FFCB46" stroke="black"/>
<path d="M24.0623 22.8047C24.0623 25.8055 20.7609 28.2381 16.6884 28.2381C12.6159 28.2381 9.31445 25.8055 9.31445 22.8047" stroke="black" stroke-width="2" stroke-linecap="round"/>
<ellipse cx="12.2255" cy="17.1686" rx="1.35836" ry="2.91076" fill="#060606"/>
<ellipse cx="21.1513" cy="17.1686" rx="1.35836" ry="2.91076" fill="#060606"/>
<path d="M24.8376 23.1928C24.6823 22.9341 24.49 22.8047 24.0614 22.8047C23.6327 22.8047 23.4404 22.9341 23.2852 23.1928" stroke="black" stroke-width="2" stroke-linecap="round"/>
<path d="M10.0915 23.1928C9.93623 22.9341 9.74395 22.8047 9.31527 22.8047C8.88658 22.8047 8.6943 22.9341 8.53906 23.1928" stroke="black" stroke-width="2" stroke-linecap="round"/>
</svg>
