<svg width="157" height="35" viewBox="0 0 157 35" fill="none" xmlns="http://www.w3.org/2000/svg">
<path d="M53.712 27.384C52.0053 27.384 50.2987 27.0853 48.592 26.488C47.3547 26.9573 45.9253 27.192 44.304 27.192C43.9413 27.192 43.6107 27.1707 43.312 27.128C43.312 25.848 43.8987 22.6907 45.072 17.656C46.2453 12.6213 46.832 9.77333 46.832 9.112C46.832 8.45067 46.704 7.864 46.448 7.352C46.2133 6.84 45.968 6.456 45.712 6.2L45.36 5.848L45.488 5.048C46.0213 4.94133 47.248 4.792 49.168 4.6C51.1093 4.38667 52.752 4.28 54.096 4.28C59.3013 4.28 61.904 5.95467 61.904 9.304C61.904 10.8613 61.3707 12.1307 60.304 13.112C59.2587 14.0933 57.9573 14.7547 56.4 15.096C57.872 15.2667 59.1093 15.8 60.112 16.696C61.1147 17.5707 61.616 18.8187 61.616 20.44C61.616 22.4453 60.8693 24.1093 59.376 25.432C57.8827 26.7333 55.9947 27.384 53.712 27.384ZM52.624 16.184C52.24 16.184 51.8133 16.216 51.344 16.28C50.512 19.928 49.9787 22.5733 49.744 24.216C50.2133 24.4933 50.8533 24.632 51.664 24.632C52.9013 24.632 53.8293 24.12 54.448 23.096C55.0667 22.072 55.376 20.92 55.376 19.64C55.376 18.3387 55.1413 17.4427 54.672 16.952C54.224 16.44 53.5413 16.184 52.624 16.184ZM52.208 13.848C53.1467 13.848 53.8827 13.496 54.416 12.792C55.376 11.576 55.856 10.232 55.856 8.76C55.856 7.26667 55.344 6.52 54.32 6.52L53.264 6.648C53.2427 7.48 52.7947 9.88 51.92 13.848H52.208ZM63.7555 27.192H63.4995C63.4355 26.8933 63.4035 26.4347 63.4035 25.816C63.4035 25.176 63.6595 23.544 64.1715 20.92C64.7048 18.2747 64.9715 16.7813 64.9715 16.44C64.9715 16.0773 64.8755 15.7147 64.6835 15.352C64.4915 14.968 64.2995 14.68 64.1075 14.488L63.8195 14.2L63.8835 13.72C65.1635 13.3147 67.2862 13.112 70.2515 13.112C70.5288 13.6453 70.6995 14.2747 70.7635 15C72.0648 13.5493 73.2168 12.824 74.2195 12.824C75.5208 12.824 76.2355 13.9227 76.3635 16.12C76.3208 16.1627 76.2675 16.2373 76.2035 16.344C76.1395 16.4293 75.9902 16.5893 75.7555 16.824C75.5208 17.0587 75.2755 17.272 75.0195 17.464C74.2942 17.9547 73.5262 18.2427 72.7155 18.328C72.6942 18.328 72.5448 18.0933 72.2675 17.624C72.0115 17.1547 71.7875 16.92 71.5955 16.92C71.4248 16.92 71.0942 17.112 70.6035 17.496C70.5395 17.88 70.4115 18.5307 70.2195 19.448C70.0488 20.3653 69.9102 21.1227 69.8035 21.72C69.4835 23.2987 69.3235 24.6213 69.3235 25.688L69.3555 26.648C68.4168 27.0107 66.5502 27.192 63.7555 27.192ZM75.3588 21.208C75.3588 18.5627 76.1588 16.504 77.7588 15.032C79.3801 13.56 81.3748 12.824 83.7428 12.824C85.3854 12.824 86.6974 13.1867 87.6788 13.912C88.6814 14.616 89.1828 15.5653 89.1828 16.76C89.1828 17.6347 88.9161 18.4133 88.3828 19.096C87.8494 19.7787 87.1988 20.3013 86.4308 20.664C84.8094 21.3893 83.4014 21.8267 82.2068 21.976L81.4068 22.072C81.6414 23.48 82.3454 24.184 83.5188 24.184C84.0308 24.184 84.5961 24.0773 85.2148 23.864C85.8334 23.6293 86.3241 23.3947 86.6868 23.16L87.2308 22.84L88.2548 24.216C88.2548 24.216 88.1374 24.3333 87.9028 24.568C87.7748 24.696 87.4654 24.952 86.9748 25.336C86.5054 25.6987 86.0041 26.0187 85.4708 26.296C84.9588 26.5733 84.2974 26.8187 83.4868 27.032C82.6761 27.2667 81.8654 27.384 81.0548 27.384C79.2414 27.384 77.8334 26.8613 76.8307 25.816C75.8494 24.7493 75.3588 23.2133 75.3588 21.208ZM81.2788 19.96C81.8974 19.8747 82.5161 19.3733 83.1348 18.456C83.7534 17.5173 84.0628 16.7387 84.0628 16.12C84.0628 15.48 83.8814 15.16 83.5188 15.16C82.9854 15.16 82.4948 15.576 82.0468 16.408C81.5988 17.24 81.3428 18.424 81.2788 19.96ZM105.232 14.04C104.784 15.4267 104.4 17.08 104.08 19C103.76 20.8987 103.6 22.232 103.6 23C103.6 23.7467 103.718 24.12 103.952 24.12L105.552 23.672L106.128 25.272C105.446 25.8053 104.571 26.296 103.504 26.744C102.459 27.1707 101.531 27.384 100.72 27.384C99.3336 27.384 98.4589 26.7867 98.0963 25.592C96.4109 26.7867 94.9176 27.384 93.6163 27.384C92.3363 27.384 91.3443 26.9147 90.6403 25.976C89.9363 25.0373 89.5843 23.6933 89.5843 21.944C89.5843 19.5333 90.2029 17.4107 91.4403 15.576C92.6776 13.7413 94.3096 12.824 96.3363 12.824C97.4456 12.824 98.5763 13.1333 99.7283 13.752C99.8989 13.368 100.038 13.0907 100.144 12.92C101.68 12.92 103.376 13.2933 105.232 14.04ZM95.6003 21.56C95.6003 22.6267 95.6749 23.2987 95.8243 23.576C95.9736 23.8533 96.2509 23.992 96.6562 23.992C97.0616 23.992 97.4563 23.832 97.8403 23.512C97.9256 21.0373 98.3309 18.4453 99.0563 15.736C98.7363 15.544 98.3629 15.448 97.9363 15.448C97.5309 15.448 97.1576 15.6827 96.8163 16.152C96.4963 16.6213 96.2509 17.208 96.0803 17.912C95.7603 19.256 95.6003 20.472 95.6003 21.56ZM117.72 27.384C116.398 27.384 115.544 26.872 115.16 25.848C113.539 26.872 112.088 27.384 110.808 27.384C109.55 27.384 108.526 26.9573 107.736 26.104C106.968 25.2293 106.584 23.8213 106.584 21.88C106.584 19.3413 107.224 17.1973 108.504 15.448C109.806 13.6987 111.48 12.824 113.528 12.824C114.531 12.824 115.534 13.0587 116.536 13.528C117.326 9.92267 117.72 7.33067 117.72 5.752C117.72 5.28267 117.688 4.81333 117.624 4.344C119.608 3.78933 121.518 3.512 123.352 3.512C123.523 3.78933 123.608 4.45067 123.608 5.496C123.608 6.52 123.118 9.29333 122.136 13.816C121.176 18.3387 120.696 21.368 120.696 22.904C120.696 23.7147 120.835 24.12 121.112 24.12L122.488 23.672L123.064 25.304C121.187 26.6907 119.406 27.384 117.72 27.384ZM113.528 24.152C113.912 24.152 114.339 24.024 114.808 23.768V23.736C114.894 22.008 115.31 19.288 116.056 15.576C115.63 15.448 115.32 15.384 115.128 15.384C114.68 15.384 114.286 15.608 113.944 16.056C113.603 16.504 113.336 17.08 113.144 17.784C112.782 19.2347 112.6 20.664 112.6 22.072C112.6 23.4587 112.91 24.152 113.528 24.152ZM131.608 15C131.608 15.9387 131.341 17.4 130.808 19.384C130.275 21.3467 130.008 22.6267 130.008 23.224C130.008 23.8213 130.125 24.12 130.36 24.12C130.595 24.12 131.021 24.0133 131.64 23.8L131.928 23.672L132.504 25.272C131.779 25.8267 130.872 26.3173 129.784 26.744C128.717 27.1707 127.747 27.384 126.872 27.384C125.997 27.384 125.304 27.1387 124.792 26.648C124.301 26.1573 124.056 25.4533 124.056 24.536C124.056 23.5973 124.312 22.1787 124.824 20.28C125.357 18.36 125.624 17.144 125.624 16.632C125.624 15.8427 125.347 15.096 124.792 14.392L124.536 14.04L124.632 13.496C125.741 13.1547 127.896 12.984 131.096 12.984C131.437 13.368 131.608 14.04 131.608 15ZM129.208 10.488C128.248 10.488 127.491 10.232 126.936 9.72C126.403 9.208 126.136 8.55733 126.136 7.768C126.136 6.95733 126.467 6.28533 127.128 5.752C127.811 5.19733 128.632 4.92 129.592 4.92C130.552 4.92 131.299 5.144 131.832 5.592C132.365 6.04 132.632 6.66933 132.632 7.48C132.632 8.29067 132.301 8.99467 131.64 9.592C131 10.1893 130.189 10.488 129.208 10.488ZM144.498 15.672L141.746 15.448C140.892 19.2667 140.423 21.4853 140.338 22.104C140.274 22.7227 140.242 23.2347 140.242 23.64C140.242 24.024 140.37 24.216 140.626 24.216C140.924 24.216 141.49 24.024 142.322 23.64L143.09 25.176C142.407 25.7947 141.543 26.3173 140.498 26.744C139.452 27.1707 138.439 27.384 137.458 27.384C136.498 27.384 135.73 27.1387 135.154 26.648C134.578 26.136 134.29 25.4213 134.29 24.504C134.29 23.5867 134.556 22.1147 135.09 20.088C135.623 18.0613 135.975 16.5573 136.146 15.576C135.634 15.6187 134.876 15.6933 133.874 15.8C133.788 15.352 133.746 14.936 133.746 14.552C133.746 14.1467 133.799 13.6987 133.906 13.208H136.466C136.487 12.9307 136.498 12.0027 136.498 10.424L136.434 9.112C138.503 8.42933 140.476 8.088 142.354 8.088C142.503 8.42933 142.578 9.02667 142.578 9.88C142.578 10.712 142.439 11.8213 142.162 13.208H145.042C145.042 14.0827 144.86 14.904 144.498 15.672Z" fill="#333333"/>
<circle cx="17.4901" cy="17.4862" r="16.4128" fill="black" stroke="black" stroke-width="0.6"/>
<circle cx="16.7128" cy="16.7128" r="16.4128" fill="#FFCB46" stroke="black" stroke-width="0.6"/>
<path d="M24.0976 19.8281C24.0976 22.8333 20.7913 25.2695 16.7128 25.2695C12.6344 25.2695 9.32812 22.8333 9.32812 19.8281" stroke="black" stroke-linecap="round"/>
<ellipse cx="12.2451" cy="14.1885" rx="1.36034" ry="2.91502" fill="#060606"/>
<ellipse cx="21.1846" cy="14.1885" rx="1.36034" ry="2.91502" fill="#060606"/>
<path d="M24.875 20.2168C24.7195 19.9577 24.527 19.8281 24.0977 19.8281C23.6683 19.8281 23.4758 19.9577 23.3203 20.2168" stroke="black" stroke-linecap="round"/>
<path d="M10.1055 20.2168C9.94999 19.9577 9.75743 19.8281 9.32812 19.8281C8.89881 19.8281 8.70625 19.9577 8.55078 20.2168" stroke="black" stroke-linecap="round"/>
</svg>
