<svg width="960" height="720" viewBox="0 0 960 720" fill="none" xmlns="http://www.w3.org/2000/svg">
<mask id="mask0_3408_3412" style="mask-type:alpha" maskUnits="userSpaceOnUse" x="0" y="0" width="960" height="720">
<rect width="960" height="720" fill="#FFC3DC"/>
</mask>
<g mask="url(#mask0_3408_3412)">
<rect width="960" height="720" fill="#FFC3DC"/>
<line x1="625" y1="4.37114e-08" x2="625" y2="720" stroke="#FFD1E5" stroke-width="2"/>
<line x1="675" y1="4.37114e-08" x2="675" y2="720" stroke="#FFD1E5" stroke-width="2"/>
<line x1="725" y1="4.37114e-08" x2="725" y2="720" stroke="#FFD1E5" stroke-width="2"/>
<line x1="775" y1="4.37114e-08" x2="775" y2="720" stroke="#FFD1E5" stroke-width="2"/>
<line x1="825" y1="4.37114e-08" x2="825" y2="720" stroke="#FFD1E5" stroke-width="2"/>
<line x1="875" y1="4.37114e-08" x2="875" y2="720" stroke="#FFD1E5" stroke-width="2"/>
<line x1="925" y1="4.37114e-08" x2="925" y2="720" stroke="#FFD1E5" stroke-width="2"/>
<line x1="576" y1="4.37114e-08" x2="576" y2="720" stroke="#FFD1E5" stroke-width="2"/>
<line x1="527" y1="4.37114e-08" x2="527" y2="720" stroke="#FFD1E5" stroke-width="2"/>
<line x1="478" y1="4.37114e-08" x2="478" y2="720" stroke="#FFD1E5" stroke-width="2"/>
<line x1="429" y1="4.37114e-08" x2="429" y2="720" stroke="#FFD1E5" stroke-width="2"/>
<line x1="380" y1="4.37114e-08" x2="380" y2="720" stroke="#FFD1E5" stroke-width="2"/>
<line x1="331" y1="4.37114e-08" x2="331" y2="720" stroke="#FFD1E5" stroke-width="2"/>
<line x1="282" y1="4.37114e-08" x2="282" y2="720" stroke="#FFD1E5" stroke-width="2"/>
<line x1="233" y1="4.37114e-08" x2="233" y2="720" stroke="#FFD1E5" stroke-width="2"/>
<line x1="184" y1="4.37114e-08" x2="184" y2="720" stroke="#FFD1E5" stroke-width="2"/>
<line x1="135" y1="4.37114e-08" x2="135" y2="720" stroke="#FFD1E5" stroke-width="2"/>
<line x1="86" y1="4.37114e-08" x2="86" y2="720" stroke="#FFD1E5" stroke-width="2"/>
<line x1="37" y1="4.37114e-08" x2="37" y2="720" stroke="#FFD1E5" stroke-width="2"/>
<line y1="40" x2="960" y2="40" stroke="#FFD1E5" stroke-width="2"/>
<line y1="89" x2="960" y2="89" stroke="#FFD1E5" stroke-width="2"/>
<line y1="138" x2="960" y2="138" stroke="#FFD1E5" stroke-width="2"/>
<line y1="187" x2="960" y2="187" stroke="#FFD1E5" stroke-width="2"/>
<line y1="236" x2="960" y2="236" stroke="#FFD1E5" stroke-width="2"/>
<line y1="285" x2="960" y2="285" stroke="#FFD1E5" stroke-width="2"/>
<line y1="334" x2="960" y2="334" stroke="#FFD1E5" stroke-width="2"/>
<line y1="383" x2="960" y2="383" stroke="#FFD1E5" stroke-width="2"/>
<line y1="432" x2="960" y2="432" stroke="#FFD1E5" stroke-width="2"/>
<line y1="481" x2="960" y2="481" stroke="#FFD1E5" stroke-width="2"/>
<line y1="530" x2="960" y2="530" stroke="#FFD1E5" stroke-width="2"/>
<line y1="579" x2="960" y2="579" stroke="#FFD1E5" stroke-width="2"/>
<line y1="628" x2="960" y2="628" stroke="#FFD1E5" stroke-width="2"/>
<line y1="677" x2="960" y2="677" stroke="#FFD1E5" stroke-width="2"/>
<path d="M668.873 62.1452L669.395 62.7714L669.717 62.022L685.074 26.2147L684.953 65.1763L684.951 65.9917L685.679 65.6242L720.46 48.066L695.323 77.8346L694.797 78.4575L695.591 78.6439L733.521 87.5504L695.13 94.197L694.327 94.3361L694.815 94.989L718.147 126.193L684.465 106.607L683.76 106.197L683.715 107.012L681.53 145.912L668.318 109.259L668.041 108.492L667.483 109.086L640.805 137.481L654.244 100.911L654.525 100.145L653.716 100.242L615.027 104.845L648.829 85.469L649.536 85.0635L648.854 84.6169L616.258 63.2747L654.607 70.1594L655.409 70.3034L655.174 69.5228L643.922 32.2211L668.873 62.1452Z" fill="#FEF4AC" stroke="#3A3333"/>
<path d="M954.719 568.664L1019.62 594.316L950.772 605.727L950.081 605.842L950.414 606.458L983.641 667.826L923.568 632.313L922.964 631.956L922.823 632.643L908.83 701.012L885.638 635.193L885.405 634.531L884.856 634.967L830.19 678.346L854.732 613.018L854.978 612.361L854.277 612.342L784.518 610.434L845.309 576.165L845.92 575.82L845.396 575.355L793.184 529.053L861.781 541.877L862.47 542.006L862.367 541.312L852.133 472.281L896.438 526.199L896.883 526.74L897.25 526.143L933.783 466.684L933.065 536.466L933.057 537.167L933.723 536.945L999.928 514.879L954.523 567.874L954.067 568.406L954.719 568.664Z" fill="#FFDFED" stroke="#3A3333"/>
</g>
</svg>
